<svg class="svg-icon" style="width: 1em; height: 1em;vertical-align: middle;fill: #ffffff;overflow: hidden;" viewBox="0 0 1024 1024" version="1.1" xmlns="http://www.w3.org/2000/svg"><path d="M682.005333 853.994667l0-172.010667 172.010667 0 0 172.010667-172.010667 0zM682.005333 597.994667l0-172.010667 172.010667 0 0 172.010667-172.010667 0zM426.005333 341.994667l0-172.010667 172.010667 0 0 172.010667-172.010667 0zM682.005333 170.005333l172.010667 0 0 172.010667-172.010667 0 0-172.010667zM426.005333 597.994667l0-172.010667 172.010667 0 0 172.010667-172.010667 0zM170.005333 597.994667l0-172.010667 172.010667 0 0 172.010667-172.010667 0zM170.005333 853.994667l0-172.010667 172.010667 0 0 172.010667-172.010667 0zM426.005333 853.994667l0-172.010667 172.010667 0 0 172.010667-172.010667 0zM170.005333 341.994667l0-172.010667 172.010667 0 0 172.010667-172.010667 0z"  /></svg>